<svg width="402" height="43" viewBox="0 0 402 43" fill="none" xmlns="http://www.w3.org/2000/svg">
<path d="M0 40.8303C0 39.9403 0.600002 39.3203 1.44 39.3203C2.28 39.3203 2.86 39.9403 2.86 40.8303C2.86 41.7203 2.31001 42.3403 1.42001 42.3403C0.580006 42.3403 0 41.6903 0 40.8303Z" fill="#B330C8"/>
<path d="M4.9707 40.8303C4.9707 39.9403 5.57071 39.3203 6.41071 39.3203C7.25071 39.3203 7.8307 39.9403 7.8307 40.8303C7.8307 41.7203 7.2807 42.3403 6.3907 42.3403C5.5507 42.3403 4.9707 41.6903 4.9707 40.8303Z" fill="#B330C8"/>
<path d="M9.93945 40.8303C9.93945 39.9403 10.5395 39.3203 11.3795 39.3203C12.2195 39.3203 12.7995 39.9403 12.7995 40.8303C12.7995 41.7203 12.2495 42.3403 11.3595 42.3403C10.5195 42.3403 9.93945 41.6903 9.93945 40.8303Z" fill="#B330C8"/>
<path d="M14.9102 40.8303C14.9102 39.9403 15.5102 39.3203 16.3502 39.3203C17.1902 39.3203 17.7702 39.9403 17.7702 40.8303C17.7702 41.7203 17.2202 42.3403 16.3302 42.3403C15.4902 42.3403 14.9102 41.6903 14.9102 40.8303Z" fill="#B330C8"/>
<path d="M19.8691 40.8303C19.8691 39.9403 20.4691 39.3203 21.3091 39.3203C22.1491 39.3203 22.7291 39.9403 22.7291 40.8303C22.7291 41.7203 22.1791 42.3403 21.2891 42.3403C20.4491 42.3403 19.8691 41.6903 19.8691 40.8303Z" fill="#B330C8"/>
<path d="M24.8398 40.8303C24.8398 39.9403 25.4398 39.3203 26.2798 39.3203C27.1198 39.3203 27.6998 39.9403 27.6998 40.8303C27.6998 41.7203 27.1498 42.3403 26.2598 42.3403C25.4198 42.3403 24.8398 41.6903 24.8398 40.8303Z" fill="#B330C8"/>
<path d="M29.8105 40.8303C29.8105 39.9403 30.4105 39.3203 31.2505 39.3203C32.0905 39.3203 32.6705 39.9403 32.6705 40.8303C32.6705 41.7203 32.1205 42.3403 31.2305 42.3403C30.3905 42.3403 29.8105 41.6903 29.8105 40.8303Z" fill="#B330C8"/>
<path d="M34.7793 40.8303C34.7793 39.9403 35.3793 39.3203 36.2193 39.3203C37.0593 39.3203 37.6393 39.9403 37.6393 40.8303C37.6393 41.7203 37.0893 42.3403 36.1993 42.3403C35.3593 42.3403 34.7793 41.6903 34.7793 40.8303Z" fill="#B330C8"/>
<path d="M39.7402 40.8303C39.7402 39.9403 40.3402 39.3203 41.1802 39.3203C42.0202 39.3203 42.6002 39.9403 42.6002 40.8303C42.6002 41.7203 42.0502 42.3403 41.1602 42.3403C40.3202 42.3403 39.7402 41.6903 39.7402 40.8303Z" fill="#B330C8"/>
<path d="M44.7109 40.8303C44.7109 39.9403 45.3109 39.3203 46.1509 39.3203C46.9909 39.3203 47.5709 39.9403 47.5709 40.8303C47.5709 41.7203 47.0209 42.3403 46.1309 42.3403C45.2909 42.3403 44.7109 41.6903 44.7109 40.8303Z" fill="#B330C8"/>
<path d="M49.6797 40.8303C49.6797 39.9403 50.2797 39.3203 51.1197 39.3203C51.9597 39.3203 52.5397 39.9403 52.5397 40.8303C52.5397 41.7203 51.9897 42.3403 51.0997 42.3403C50.2597 42.3403 49.6797 41.6903 49.6797 40.8303Z" fill="#B330C8"/>
<path d="M54.6504 40.8303C54.6504 39.9403 55.2504 39.3203 56.0904 39.3203C56.9304 39.3203 57.5104 39.9403 57.5104 40.8303C57.5104 41.7203 56.9604 42.3403 56.0704 42.3403C55.2304 42.3403 54.6504 41.6903 54.6504 40.8303Z" fill="#B330C8"/>
<path d="M59.6094 40.8303C59.6094 39.9403 60.2094 39.3203 61.0494 39.3203C61.8894 39.3203 62.4694 39.9403 62.4694 40.8303C62.4694 41.7203 61.9194 42.3403 61.0294 42.3403C60.1894 42.3403 59.6094 41.6903 59.6094 40.8303Z" fill="#B330C8"/>
<path d="M64.5801 40.8303C64.5801 39.9403 65.1801 39.3203 66.0201 39.3203C66.8601 39.3203 67.4401 39.9403 67.4401 40.8303C67.4401 41.7203 66.8901 42.3403 66.0001 42.3403C65.1601 42.3403 64.5801 41.6903 64.5801 40.8303Z" fill="#B330C8"/>
<path d="M69.5508 40.8303C69.5508 39.9403 70.1508 39.3203 70.9908 39.3203C71.8308 39.3203 72.4108 39.9403 72.4108 40.8303C72.4108 41.7203 71.8608 42.3403 70.9708 42.3403C70.1308 42.3403 69.5508 41.6903 69.5508 40.8303Z" fill="#B330C8"/>
<path d="M74.5195 40.8303C74.5195 39.9403 75.1195 39.3203 75.9595 39.3203C76.7995 39.3203 77.3795 39.9403 77.3795 40.8303C77.3795 41.7203 76.8295 42.3403 75.9395 42.3403C75.0995 42.3403 74.5195 41.6903 74.5195 40.8303Z" fill="#B330C8"/>
<path d="M79.4902 40.8303C79.4902 39.9403 80.0902 39.3203 80.9302 39.3203C81.7702 39.3203 82.3502 39.9403 82.3502 40.8303C82.3502 41.7203 81.8002 42.3403 80.9102 42.3403C80.0702 42.3403 79.4902 41.6903 79.4902 40.8303Z" fill="#B330C8"/>
<path d="M84.4492 40.8303C84.4492 39.9403 85.0492 39.3203 85.8892 39.3203C86.7292 39.3203 87.3092 39.9403 87.3092 40.8303C87.3092 41.7203 86.7592 42.3403 85.8692 42.3403C85.0292 42.3403 84.4492 41.6903 84.4492 40.8303Z" fill="#B330C8"/>
<path d="M89.4199 40.8303C89.4199 39.9403 90.0199 39.3203 90.8599 39.3203C91.6999 39.3203 92.2799 39.9403 92.2799 40.8303C92.2799 41.7203 91.7299 42.3403 90.8399 42.3403C89.9999 42.3403 89.4199 41.6903 89.4199 40.8303Z" fill="#B330C8"/>
<path d="M94.3906 40.8303C94.3906 39.9403 94.9906 39.3203 95.8306 39.3203C96.6706 39.3203 97.2506 39.9403 97.2506 40.8303C97.2506 41.7203 96.7006 42.3403 95.8106 42.3403C94.9706 42.3403 94.3906 41.6903 94.3906 40.8303Z" fill="#B330C8"/>
<path d="M99.3594 40.8303C99.3594 39.9403 99.9594 39.3203 100.799 39.3203C101.639 39.3203 102.219 39.9403 102.219 40.8303C102.219 41.7203 101.669 42.3403 100.779 42.3403C99.9394 42.3403 99.3594 41.6903 99.3594 40.8303Z" fill="#B330C8"/>
<path d="M104.32 40.8303C104.32 39.9403 104.92 39.3203 105.76 39.3203C106.6 39.3203 107.18 39.9403 107.18 40.8303C107.18 41.7203 106.63 42.3403 105.74 42.3403C104.9 42.3403 104.32 41.6903 104.32 40.8303Z" fill="#B330C8"/>
<path d="M109.289 40.8303C109.289 39.9403 109.889 39.3203 110.729 39.3203C111.569 39.3203 112.149 39.9403 112.149 40.8303C112.149 41.7203 111.599 42.3403 110.709 42.3403C109.869 42.3403 109.289 41.6903 109.289 40.8303Z" fill="#B330C8"/>
<path d="M114.26 40.8303C114.26 39.9403 114.86 39.3203 115.7 39.3203C116.54 39.3203 117.12 39.9403 117.12 40.8303C117.12 41.7203 116.57 42.3403 115.68 42.3403C114.84 42.3403 114.26 41.6903 114.26 40.8303Z" fill="#B330C8"/>
<path d="M119.23 40.8303C119.23 39.9403 119.83 39.3203 120.67 39.3203C121.51 39.3203 122.09 39.9403 122.09 40.8303C122.09 41.7203 121.54 42.3403 120.65 42.3403C119.81 42.3403 119.23 41.6903 119.23 40.8303Z" fill="#B330C8"/>
<path d="M124.189 40.8303C124.189 39.9403 124.789 39.3203 125.629 39.3203C126.469 39.3203 127.049 39.9403 127.049 40.8303C127.049 41.7203 126.499 42.3403 125.609 42.3403C124.769 42.3403 124.189 41.6903 124.189 40.8303Z" fill="#B330C8"/>
<path d="M129.16 40.8303C129.16 39.9403 129.76 39.3203 130.6 39.3203C131.44 39.3203 132.02 39.9403 132.02 40.8303C132.02 41.7203 131.47 42.3403 130.58 42.3403C129.74 42.3403 129.16 41.6903 129.16 40.8303Z" fill="#B330C8"/>
<path d="M134.131 40.8303C134.131 39.9403 134.731 39.3203 135.571 39.3203C136.411 39.3203 136.991 39.9403 136.991 40.8303C136.991 41.7203 136.441 42.3403 135.551 42.3403C134.711 42.3403 134.131 41.6903 134.131 40.8303Z" fill="#B330C8"/>
<path d="M139.1 40.8303C139.1 39.9403 139.7 39.3203 140.54 39.3203C141.38 39.3203 141.96 39.9403 141.96 40.8303C141.96 41.7203 141.41 42.3403 140.52 42.3403C139.68 42.3403 139.1 41.6903 139.1 40.8303Z" fill="#B330C8"/>
<path d="M147.709 27.6804H142.789V25.9004H154.769V27.6804H149.829V42.0804H147.719V27.6804H147.709Z" fill="#B330C8"/>
<path d="M164.95 34.4906H158.66V40.3206H165.67V42.0706H156.57V25.8906H165.31V27.6406H158.66V32.7506H164.95V34.4806V34.4906Z" fill="#B330C8"/>
<path d="M170.99 36.9904L169.31 42.0804H167.15L172.65 25.9004H175.17L180.69 42.0804H178.46L176.73 36.9904H170.99ZM176.3 35.3604L174.72 30.7004C174.36 29.6404 174.12 28.6804 173.88 27.7504H173.83C173.59 28.7104 173.33 29.6904 173.01 30.6804L171.43 35.3604H176.3Z" fill="#B330C8"/>
<path d="M188.15 26.1212C189.21 25.9012 190.72 25.7812 192.16 25.7812C194.39 25.7812 195.83 26.1912 196.84 27.1012C197.66 27.8212 198.11 28.9212 198.11 30.1712C198.11 32.3112 196.77 33.7212 195.06 34.3012V34.3712C196.31 34.8012 197.05 35.9512 197.44 37.6312C197.97 39.8912 198.35 41.4512 198.69 42.0712H196.53C196.27 41.6112 195.91 40.2212 195.45 38.2112C194.97 35.9812 194.11 35.1412 192.21 35.0712H190.24V42.0812H188.15V26.1212ZM190.24 33.4912H192.38C194.61 33.4912 196.03 32.2712 196.03 30.4212C196.03 28.3312 194.52 27.4212 192.31 27.4012C191.3 27.4012 190.58 27.5012 190.25 27.5912V33.4912H190.24Z" fill="#B330C8"/>
<path d="M214.96 33.8209C214.96 39.3909 211.58 42.3409 207.45 42.3409C203.32 42.3409 200.18 39.0309 200.18 34.1309C200.18 28.9909 203.37 25.6309 207.69 25.6309C212.01 25.6309 214.96 29.0109 214.96 33.8109V33.8209ZM202.41 34.0909C202.41 37.5509 204.28 40.6409 207.57 40.6409C210.86 40.6409 212.75 37.5908 212.75 33.9208C212.75 30.7008 211.07 27.3409 207.59 27.3409C204.11 27.3409 202.41 30.5309 202.41 34.0809V34.0909Z" fill="#B330C8"/>
<path d="M231.501 33.8209C231.501 39.3909 228.121 42.3409 223.991 42.3409C219.861 42.3409 216.721 39.0309 216.721 34.1309C216.721 28.9909 219.911 25.6309 224.231 25.6309C228.551 25.6309 231.501 29.0109 231.501 33.8109V33.8209ZM218.941 34.0909C218.941 37.5509 220.811 40.6409 224.101 40.6409C227.391 40.6409 229.281 37.5908 229.281 33.9208C229.281 30.7008 227.601 27.3409 224.121 27.3409C220.641 27.3409 218.941 30.5309 218.941 34.0809V34.0909Z" fill="#B330C8"/>
<path d="M247.839 34.9803C247.719 32.7203 247.579 30.0104 247.599 28.0004H247.529C246.979 29.9004 246.309 31.9104 245.489 34.1404L242.629 41.9904H241.049L238.429 34.2804C237.659 32.0004 237.009 29.9104 236.559 27.9904H236.509C236.459 30.0104 236.339 32.7204 236.199 35.1404L235.769 42.0804H233.779L234.909 25.9004H237.569L240.329 33.7303C240.999 35.7203 241.549 37.5004 241.959 39.1804H242.029C242.439 37.5504 243.009 35.7703 243.729 33.7303L246.609 25.9004H249.269L250.279 42.0804H248.239L247.829 34.9803H247.839Z" fill="#B330C8"/>
<path d="M279.58 0.869141V7.63916H287.41V0.869141H289.52V17.0491H287.41V9.46918H279.58V17.0491H277.49V0.869141H279.58Z" fill="#B330C8"/>
<path d="M294.24 11.6201C294.29 14.4801 296.11 15.6501 298.22 15.6501C299.73 15.6501 300.64 15.3901 301.44 15.0501L301.8 16.5601C301.06 16.9001 299.78 17.2802 297.94 17.2802C294.36 17.2802 292.23 14.9301 292.23 11.4201C292.23 7.9101 294.29 5.16016 297.68 5.16016C301.47 5.16016 302.48 8.50013 302.48 10.6301C302.48 11.0601 302.43 11.4001 302.41 11.6101H294.25L294.24 11.6201ZM300.43 10.1101C300.45 8.77011 299.88 6.68011 297.5 6.68011C295.36 6.68011 294.43 8.65011 294.26 10.1101H300.43Z" fill="#B330C8"/>
<path d="M311.52 17.0499L311.35 15.59H311.28C310.63 16.5 309.38 17.3199 307.73 17.3199C305.38 17.3199 304.18 15.6599 304.18 13.9799C304.18 11.1699 306.68 9.63997 311.16 9.65997V9.41992C311.16 8.45992 310.9 6.72992 308.52 6.72992C307.44 6.72992 306.31 7.06997 305.5 7.58997L305.02 6.19995C305.98 5.57995 307.37 5.16992 308.84 5.16992C312.39 5.16992 313.26 7.58992 313.26 9.91992V14.2599C313.26 15.2699 313.31 16.2499 313.45 17.0399H311.53L311.52 17.0499ZM311.21 11.1199C308.91 11.0699 306.29 11.4799 306.29 13.7399C306.29 15.1099 307.2 15.7599 308.28 15.7599C309.79 15.7599 310.75 14.7999 311.09 13.8199C311.16 13.5999 311.21 13.36 311.21 13.15V11.1299V11.1199Z" fill="#B330C8"/>
<path d="M316.661 9.04993C316.661 7.67993 316.641 6.50993 316.561 5.42993H318.411L318.481 7.70996H318.581C319.111 6.14996 320.381 5.16992 321.801 5.16992C322.041 5.16992 322.211 5.18993 322.401 5.23993V7.22992C322.181 7.17992 321.971 7.15997 321.681 7.15997C320.191 7.15997 319.141 8.28993 318.851 9.86993C318.801 10.1599 318.751 10.4899 318.751 10.8499V17.0399H316.661V9.04993Z" fill="#B330C8"/>
<path d="M327.62 2.08984V5.42981H330.64V7.03979H327.62V13.2998C327.62 14.7398 328.03 15.5598 329.2 15.5598C329.75 15.5598 330.16 15.4898 330.42 15.4198L330.52 16.9998C330.11 17.1698 329.46 17.2898 328.65 17.2898C327.67 17.2898 326.87 16.9798 326.37 16.3998C325.77 15.7798 325.55 14.7398 325.55 13.3798V7.03979H323.75V5.42981H325.55V2.64984L327.61 2.09979L327.62 2.08984Z" fill="#B330C8"/>
<path d="M346.39 16.6097C345.84 16.8997 344.61 17.2797 343.05 17.2797C339.55 17.2797 337.27 14.8997 337.27 11.3497C337.27 7.79967 339.72 5.17969 343.51 5.17969C344.76 5.17969 345.86 5.48972 346.44 5.77972L345.96 7.40973C345.46 7.11973 344.66 6.85968 343.51 6.85968C340.85 6.85968 339.41 8.82969 339.41 11.2497C339.41 13.9397 341.14 15.5897 343.44 15.5897C344.64 15.5897 345.43 15.2797 346.03 15.0097L346.39 16.5897V16.6097Z" fill="#B330C8"/>
<path d="M348.859 0H350.969V7.25H351.019C351.359 6.65 351.879 6.12001 352.529 5.76001C353.149 5.40001 353.899 5.16003 354.689 5.16003C356.249 5.16003 358.749 6.12 358.749 10.13V17.04H356.639V10.37C356.639 8.5 355.939 6.91003 353.949 6.91003C352.579 6.91003 351.499 7.87002 351.119 9.02002C350.999 9.31002 350.979 9.62003 350.979 10.03V17.04H348.869V0H348.859Z" fill="#B330C8"/>
<path d="M368.619 17.0499L368.449 15.59H368.379C367.729 16.5 366.479 17.3199 364.829 17.3199C362.479 17.3199 361.279 15.6599 361.279 13.9799C361.279 11.1699 363.779 9.63997 368.259 9.65997V9.41992C368.259 8.45992 367.999 6.72992 365.619 6.72992C364.539 6.72992 363.409 7.06997 362.599 7.58997L362.119 6.19995C363.079 5.57995 364.469 5.16992 365.939 5.16992C369.489 5.16992 370.359 7.58992 370.359 9.91992V14.2599C370.359 15.2699 370.409 16.2499 370.549 17.0399H368.629L368.619 17.0499ZM368.309 11.1199C366.009 11.0699 363.389 11.4799 363.389 13.7399C363.389 15.1099 364.299 15.7599 365.379 15.7599C366.889 15.7599 367.849 14.7999 368.189 13.8199C368.259 13.5999 368.309 13.36 368.309 13.15V11.1299V11.1199Z" fill="#B330C8"/>
<path d="M375.84 10.7598H375.89C376.18 10.3498 376.59 9.84976 376.92 9.43976L380.33 5.42975H382.87L378.38 10.2098L383.49 17.0497H380.92L376.91 11.4797L375.83 12.6797V17.0497H373.74V0.00976562H375.83V10.7598H375.84Z" fill="#B330C8"/>
<path d="M385.42 9.04993C385.42 7.67993 385.4 6.50993 385.32 5.42993H387.17L387.24 7.70996H387.34C387.87 6.14996 389.14 5.16992 390.56 5.16992C390.8 5.16992 390.97 5.18993 391.16 5.23993V7.22992C390.94 7.17992 390.73 7.15997 390.44 7.15997C388.95 7.15997 387.9 8.28993 387.61 9.86993C387.56 10.1599 387.51 10.4899 387.51 10.8499V17.0399H385.42V9.04993Z" fill="#B330C8"/>
<path d="M399.58 17.0499L399.41 15.59H399.34C398.69 16.5 397.44 17.3199 395.79 17.3199C393.44 17.3199 392.24 15.6599 392.24 13.9799C392.24 11.1699 394.74 9.63997 399.22 9.65997V9.41992C399.22 8.45992 398.96 6.72992 396.58 6.72992C395.5 6.72992 394.37 7.06997 393.56 7.58997L393.08 6.19995C394.04 5.57995 395.43 5.16992 396.9 5.16992C400.45 5.16992 401.32 7.58992 401.32 9.91992V14.2599C401.32 15.2699 401.37 16.2499 401.51 17.0399H399.59L399.58 17.0499ZM399.27 11.1199C396.97 11.0699 394.35 11.4799 394.35 13.7399C394.35 15.1099 395.26 15.7599 396.34 15.7599C397.85 15.7599 398.81 14.7999 399.15 13.8199C399.22 13.5999 399.27 13.36 399.27 13.15V11.1299V11.1199Z" fill="#B330C8"/>
</svg>
