<svg width="470" height="43" viewBox="0 0 470 43" fill="none" xmlns="http://www.w3.org/2000/svg">
<path d="M0 40.51C0 39.62 0.600002 39 1.44 39C2.28 39 2.86 39.62 2.86 40.51C2.86 41.4 2.31001 42.02 1.42001 42.02C0.580006 42.02 0 41.37 0 40.51Z" fill="#B330C8"/>
<path d="M4.96997 40.51C4.96997 39.62 5.56997 39 6.40997 39C7.24997 39 7.82997 39.62 7.82997 40.51C7.82997 41.4 7.27997 42.02 6.38997 42.02C5.54997 42.02 4.96997 41.37 4.96997 40.51Z" fill="#B330C8"/>
<path d="M9.93994 40.51C9.93994 39.62 10.5399 39 11.3799 39C12.2199 39 12.7999 39.62 12.7999 40.51C12.7999 41.4 12.2499 42.02 11.3599 42.02C10.5199 42.02 9.93994 41.37 9.93994 40.51Z" fill="#B330C8"/>
<path d="M14.9 40.51C14.9 39.62 15.5 39 16.34 39C17.18 39 17.76 39.62 17.76 40.51C17.76 41.4 17.21 42.02 16.32 42.02C15.48 42.02 14.9 41.37 14.9 40.51Z" fill="#B330C8"/>
<path d="M19.87 40.51C19.87 39.62 20.47 39 21.31 39C22.15 39 22.73 39.62 22.73 40.51C22.73 41.4 22.18 42.02 21.29 42.02C20.45 42.02 19.87 41.37 19.87 40.51Z" fill="#B330C8"/>
<path d="M24.84 40.51C24.84 39.62 25.44 39 26.28 39C27.12 39 27.7 39.62 27.7 40.51C27.7 41.4 27.15 42.02 26.26 42.02C25.42 42.02 24.84 41.37 24.84 40.51Z" fill="#B330C8"/>
<path d="M29.8101 40.51C29.8101 39.62 30.4101 39 31.2501 39C32.0901 39 32.6701 39.62 32.6701 40.51C32.6701 41.4 32.1201 42.02 31.2301 42.02C30.3901 42.02 29.8101 41.37 29.8101 40.51Z" fill="#B330C8"/>
<path d="M34.77 40.51C34.77 39.62 35.37 39 36.21 39C37.05 39 37.63 39.62 37.63 40.51C37.63 41.4 37.08 42.02 36.19 42.02C35.35 42.02 34.77 41.37 34.77 40.51Z" fill="#B330C8"/>
<path d="M39.74 40.51C39.74 39.62 40.34 39 41.18 39C42.02 39 42.6 39.62 42.6 40.51C42.6 41.4 42.05 42.02 41.16 42.02C40.32 42.02 39.74 41.37 39.74 40.51Z" fill="#B330C8"/>
<path d="M44.71 40.51C44.71 39.62 45.31 39 46.15 39C46.99 39 47.57 39.62 47.57 40.51C47.57 41.4 47.02 42.02 46.13 42.02C45.29 42.02 44.71 41.37 44.71 40.51Z" fill="#B330C8"/>
<path d="M49.6801 40.51C49.6801 39.62 50.2801 39 51.1201 39C51.9601 39 52.5401 39.62 52.5401 40.51C52.5401 41.4 51.9901 42.02 51.1001 42.02C50.2601 42.02 49.6801 41.37 49.6801 40.51Z" fill="#B330C8"/>
<path d="M54.64 40.51C54.64 39.62 55.24 39 56.08 39C56.92 39 57.5 39.62 57.5 40.51C57.5 41.4 56.95 42.02 56.06 42.02C55.22 42.02 54.64 41.37 54.64 40.51Z" fill="#B330C8"/>
<path d="M59.61 40.51C59.61 39.62 60.21 39 61.05 39C61.89 39 62.47 39.62 62.47 40.51C62.47 41.4 61.92 42.02 61.03 42.02C60.19 42.02 59.61 41.37 59.61 40.51Z" fill="#B330C8"/>
<path d="M64.58 40.51C64.58 39.62 65.1799 39 66.0199 39C66.8599 39 67.4399 39.62 67.4399 40.51C67.4399 41.4 66.89 42.02 66 42.02C65.16 42.02 64.58 41.37 64.58 40.51Z" fill="#B330C8"/>
<path d="M69.55 40.51C69.55 39.62 70.1501 39 70.9901 39C71.8301 39 72.41 39.62 72.41 40.51C72.41 41.4 71.8601 42.02 70.9701 42.02C70.1301 42.02 69.55 41.37 69.55 40.51Z" fill="#B330C8"/>
<path d="M74.51 40.51C74.51 39.62 75.11 39 75.95 39C76.79 39 77.37 39.62 77.37 40.51C77.37 41.4 76.82 42.02 75.93 42.02C75.09 42.02 74.51 41.37 74.51 40.51Z" fill="#B330C8"/>
<path d="M79.48 40.51C79.48 39.62 80.08 39 80.92 39C81.76 39 82.34 39.62 82.34 40.51C82.34 41.4 81.79 42.02 80.9 42.02C80.06 42.02 79.48 41.37 79.48 40.51Z" fill="#B330C8"/>
<path d="M84.45 40.51C84.45 39.62 85.05 39 85.89 39C86.73 39 87.31 39.62 87.31 40.51C87.31 41.4 86.7599 42.02 85.8699 42.02C85.0299 42.02 84.45 41.37 84.45 40.51Z" fill="#B330C8"/>
<path d="M89.42 40.51C89.42 39.62 90.02 39 90.86 39C91.7 39 92.28 39.62 92.28 40.51C92.28 41.4 91.73 42.02 90.84 42.02C90 42.02 89.42 41.37 89.42 40.51Z" fill="#B330C8"/>
<path d="M94.39 40.51C94.39 39.62 94.99 39 95.83 39C96.67 39 97.25 39.62 97.25 40.51C97.25 41.4 96.7 42.02 95.81 42.02C94.97 42.02 94.39 41.37 94.39 40.51Z" fill="#B330C8"/>
<path d="M99.35 40.51C99.35 39.62 99.95 39 100.79 39C101.63 39 102.21 39.62 102.21 40.51C102.21 41.4 101.66 42.02 100.77 42.02C99.93 42.02 99.35 41.37 99.35 40.51Z" fill="#B330C8"/>
<path d="M104.32 40.51C104.32 39.62 104.92 39 105.76 39C106.6 39 107.18 39.62 107.18 40.51C107.18 41.4 106.63 42.02 105.74 42.02C104.9 42.02 104.32 41.37 104.32 40.51Z" fill="#B330C8"/>
<path d="M109.29 40.51C109.29 39.62 109.89 39 110.73 39C111.57 39 112.15 39.62 112.15 40.51C112.15 41.4 111.6 42.02 110.71 42.02C109.87 42.02 109.29 41.37 109.29 40.51Z" fill="#B330C8"/>
<path d="M114.26 40.51C114.26 39.62 114.86 39 115.7 39C116.54 39 117.12 39.62 117.12 40.51C117.12 41.4 116.57 42.02 115.68 42.02C114.84 42.02 114.26 41.37 114.26 40.51Z" fill="#B330C8"/>
<path d="M119.22 40.51C119.22 39.62 119.82 39 120.66 39C121.5 39 122.08 39.62 122.08 40.51C122.08 41.4 121.53 42.02 120.64 42.02C119.8 42.02 119.22 41.37 119.22 40.51Z" fill="#B330C8"/>
<path d="M124.19 40.51C124.19 39.62 124.79 39 125.63 39C126.47 39 127.05 39.62 127.05 40.51C127.05 41.4 126.5 42.02 125.61 42.02C124.77 42.02 124.19 41.37 124.19 40.51Z" fill="#B330C8"/>
<path d="M129.16 40.51C129.16 39.62 129.76 39 130.6 39C131.44 39 132.02 39.62 132.02 40.51C132.02 41.4 131.47 42.02 130.58 42.02C129.74 42.02 129.16 41.37 129.16 40.51Z" fill="#B330C8"/>
<path d="M134.13 40.51C134.13 39.62 134.73 39 135.57 39C136.41 39 136.99 39.62 136.99 40.51C136.99 41.4 136.44 42.02 135.55 42.02C134.71 42.02 134.13 41.37 134.13 40.51Z" fill="#B330C8"/>
<path d="M139.09 40.51C139.09 39.62 139.69 39 140.53 39C141.37 39 141.95 39.62 141.95 40.51C141.95 41.4 141.4 42.02 140.51 42.02C139.67 42.02 139.09 41.37 139.09 40.51Z" fill="#B330C8"/>
<path d="M144.64 25.8C145.91 25.61 147.42 25.46 149.08 25.46C152.08 25.46 154.22 26.16 155.63 27.48C157.07 28.8 157.91 30.67 157.91 33.29C157.91 35.91 157.09 38.09 155.58 39.58C154.07 41.09 151.57 41.91 148.43 41.91C146.94 41.91 145.69 41.84 144.64 41.72V25.81V25.8ZM146.73 40.1C147.26 40.2 148.03 40.22 148.84 40.22C153.3 40.22 155.73 37.72 155.73 33.36C155.75 29.54 153.59 27.12 149.18 27.12C148.1 27.12 147.28 27.22 146.73 27.34V40.11V40.1Z" fill="#B330C8"/>
<path d="M236.17 31.3496H237.78V38.3796C237.78 41.1696 236.15 42.0296 234 42.0296C233.41 42.0296 232.68 41.9196 232.28 41.7796L232.52 40.6696C232.85 40.7796 233.33 40.8696 233.87 40.8696C235.31 40.8696 236.17 40.3197 236.17 38.2697V31.3496Z" fill="#B330C8"/>
<path d="M280.44 14.5004C281.38 15.0804 282.74 15.5604 284.18 15.5604C286.32 15.5604 287.56 14.4304 287.56 12.8004C287.56 11.2904 286.7 10.4204 284.51 9.58038C281.87 8.64038 280.24 7.28037 280.24 5.00037C280.24 2.48037 282.33 0.610352 285.47 0.610352C287.13 0.610352 288.33 0.99033 289.05 1.40033L288.47 3.10034C287.94 2.81034 286.86 2.33038 285.4 2.33038C283.19 2.33038 282.35 3.65037 282.35 4.75037C282.35 6.26037 283.33 7.01036 285.57 7.87036C288.31 8.93036 289.7 10.2504 289.7 12.6204C289.7 15.1204 287.85 17.2803 284.04 17.2803C282.48 17.2803 280.78 16.8204 279.91 16.2504L280.44 14.5004Z" fill="#B330C8"/>
<path d="M303.15 11.1402C303.15 15.4402 300.17 17.3102 297.37 17.3102C294.23 17.3102 291.8 15.0102 291.8 11.3302C291.8 7.4402 294.34 5.16016 297.56 5.16016C300.78 5.16016 303.15 7.5802 303.15 11.1402ZM293.93 11.2602C293.93 13.8002 295.39 15.7202 297.46 15.7202C299.53 15.7202 300.99 13.8201 300.99 11.2101C300.99 9.24014 300.01 6.75018 297.51 6.75018C295.01 6.75018 293.93 9.05019 293.93 11.2602Z" fill="#B330C8"/>
<path d="M305.81 0H307.92V17.04H305.81V0Z" fill="#B330C8"/>
<path d="M317.91 17.0402L317.74 15.5802H317.67C317.02 16.4902 315.77 17.3102 314.12 17.3102C311.77 17.3102 310.57 15.6502 310.57 13.9702C310.57 11.1602 313.07 9.63015 317.55 9.65015V9.41016C317.55 8.45016 317.29 6.72015 314.91 6.72015C313.83 6.72015 312.7 7.0602 311.89 7.5802L311.41 6.19019C312.37 5.57019 313.76 5.16016 315.23 5.16016C318.78 5.16016 319.65 7.58016 319.65 9.91016V14.2502C319.65 15.2602 319.7 16.2402 319.84 17.0302H317.92L317.91 17.0402ZM317.59 11.1102C315.29 11.0602 312.67 11.4702 312.67 13.7302C312.67 15.1002 313.58 15.7502 314.66 15.7502C316.17 15.7502 317.13 14.7902 317.47 13.8102C317.54 13.5902 317.59 13.3502 317.59 13.1402V11.1202V11.1102Z" fill="#B330C8"/>
<path d="M323.04 9.04993C323.04 7.67993 323.02 6.50993 322.94 5.42993H324.79L324.86 7.7099H324.96C325.49 6.1499 326.76 5.16992 328.18 5.16992C328.42 5.16992 328.59 5.18993 328.78 5.23993V7.22992C328.56 7.17992 328.35 7.15991 328.06 7.15991C326.57 7.15991 325.52 8.28993 325.23 9.86993C325.18 10.1599 325.13 10.4899 325.13 10.8499V17.0399H323.04V9.04993Z" fill="#B330C8"/>
<path d="M335.98 9.22015C335.98 7.73015 335.93 6.53018 335.88 5.43018H337.78L337.88 7.42017H337.93C338.79 6.00017 340.16 5.16016 342.06 5.16016C344.87 5.16016 346.98 7.54019 346.98 11.0702C346.98 15.2502 344.44 17.3102 341.7 17.3102C340.16 17.3102 338.82 16.6402 338.12 15.4902H338.07V21.8002H335.98V9.22015ZM338.06 12.3102C338.06 12.6202 338.11 12.9102 338.16 13.1702C338.54 14.6302 339.82 15.6402 341.33 15.6402C343.56 15.6402 344.86 13.8201 344.86 11.1501C344.86 8.82015 343.64 6.8302 341.4 6.8302C339.96 6.8302 338.62 7.8602 338.21 9.4502C338.14 9.7102 338.07 10.0302 338.07 10.3102V12.3002L338.06 12.3102Z" fill="#B330C8"/>
<path d="M349.63 0H351.74V17.04H349.63V0Z" fill="#B330C8"/>
<path d="M356.47 11.6204C356.52 14.4804 358.34 15.6504 360.45 15.6504C361.96 15.6504 362.87 15.3904 363.67 15.0504L364.03 16.5604C363.29 16.9004 362.01 17.2804 360.17 17.2804C356.59 17.2804 354.46 14.9304 354.46 11.4204C354.46 7.91041 356.52 5.15039 359.91 5.15039C363.7 5.15039 364.71 8.49042 364.71 10.6204C364.71 11.0504 364.66 11.3904 364.64 11.6004H356.48L356.47 11.6204ZM362.66 10.1104C362.68 8.77041 362.11 6.68042 359.73 6.68042C357.59 6.68042 356.66 8.65041 356.49 10.1104H362.66Z" fill="#B330C8"/>
<path d="M368.23 5.42969L369.89 7.92969C370.32 8.57969 370.68 9.17971 371.07 9.82971H371.14C371.52 9.12971 371.91 8.52967 372.29 7.90967L373.92 5.4397H376.2L372.24 11.0597L376.32 17.0597H373.92L372.22 14.4397C371.76 13.7697 371.38 13.1197 370.97 12.4197H370.92C370.54 13.1197 370.13 13.7397 369.7 14.4397L368.02 17.0597H365.69L369.82 11.1297L365.88 5.4397H368.23V5.42969Z" fill="#B330C8"/>
<path d="M388.08 13.8699C388.08 15.0699 388.1 16.1299 388.18 17.0399H386.31L386.19 15.14H386.14C385.59 16.08 384.36 17.2999 382.3 17.2999C380.48 17.2999 378.29 16.2899 378.29 12.2099V5.41992H380.4V11.8499C380.4 14.0599 381.07 15.5499 382.99 15.5499C384.41 15.5499 385.39 14.5699 385.77 13.6299C385.89 13.3199 385.96 12.9299 385.96 12.5499V5.41992H388.07V13.8699H388.08Z" fill="#B330C8"/>
<path d="M391.3 14.8804C391.92 15.2904 393.03 15.7204 394.08 15.7204C395.62 15.7204 396.34 14.9504 396.34 13.9904C396.34 12.9804 395.74 12.4304 394.18 11.8504C392.09 11.1104 391.11 9.95042 391.11 8.56042C391.11 6.69042 392.62 5.15039 395.12 5.15039C396.3 5.15039 397.33 5.49042 397.98 5.87042L397.45 7.4104C396.99 7.1204 396.15 6.74042 395.07 6.74042C393.82 6.74042 393.13 7.46043 393.13 8.32043C393.13 9.28043 393.83 9.71041 395.34 10.2904C397.36 11.0604 398.39 12.0704 398.39 13.7904C398.39 15.8304 396.81 17.2704 394.05 17.2704C392.78 17.2704 391.6 16.9604 390.79 16.4804L391.32 14.8704L391.3 14.8804Z" fill="#B330C8"/>
<path d="M414.46 16.6097C413.91 16.8997 412.68 17.2797 411.12 17.2797C407.62 17.2797 405.34 14.8997 405.34 11.3497C405.34 7.79967 407.79 5.17969 411.58 5.17969C412.83 5.17969 413.93 5.48966 414.51 5.77966L414.03 7.40967C413.53 7.11967 412.73 6.85968 411.58 6.85968C408.92 6.85968 407.48 8.82969 407.48 11.2497C407.48 13.9397 409.21 15.5897 411.51 15.5897C412.71 15.5897 413.5 15.2797 414.1 15.0097L414.46 16.5897V16.6097Z" fill="#B330C8"/>
<path d="M416.93 0H419.04V7.25H419.09C419.43 6.65 419.95 6.12001 420.6 5.76001C421.22 5.40001 421.97 5.15997 422.76 5.15997C424.32 5.15997 426.82 6.12 426.82 10.13V17.04H424.71V10.37C424.71 8.5 424.01 6.90997 422.02 6.90997C420.65 6.90997 419.57 7.87002 419.19 9.02002C419.07 9.31002 419.05 9.61997 419.05 10.03V17.04H416.94V0H416.93Z" fill="#B330C8"/>
<path d="M436.68 17.0402L436.51 15.5802H436.44C435.79 16.4902 434.54 17.3102 432.89 17.3102C430.54 17.3102 429.34 15.6502 429.34 13.9702C429.34 11.1602 431.84 9.63015 436.32 9.65015V9.41016C436.32 8.45016 436.06 6.72015 433.68 6.72015C432.6 6.72015 431.47 7.0602 430.66 7.5802L430.18 6.19019C431.14 5.57019 432.53 5.16016 434 5.16016C437.55 5.16016 438.42 7.58016 438.42 9.91016V14.2502C438.42 15.2602 438.47 16.2402 438.61 17.0302H436.69L436.68 17.0402ZM436.37 11.1102C434.07 11.0602 431.45 11.4702 431.45 13.7302C431.45 15.1002 432.36 15.7502 433.44 15.7502C434.95 15.7502 435.91 14.7902 436.25 13.8102C436.32 13.5902 436.37 13.3502 436.37 13.1402V11.1202V11.1102Z" fill="#B330C8"/>
<path d="M443.9 10.75H443.95C444.24 10.34 444.65 9.83999 444.98 9.42999L448.39 5.41998H450.93L446.44 10.2L451.55 17.04H448.98L444.97 11.47L443.89 12.67V17.04H441.8V0H443.89V10.75H443.9Z" fill="#B330C8"/>
<path d="M453.48 9.04993C453.48 7.67993 453.46 6.50993 453.38 5.42993H455.23L455.3 7.7099H455.4C455.93 6.1499 457.2 5.16992 458.62 5.16992C458.86 5.16992 459.03 5.18993 459.22 5.23993V7.22992C459 7.17992 458.79 7.15991 458.5 7.15991C457.01 7.15991 455.96 8.28993 455.67 9.86993C455.62 10.1599 455.57 10.4899 455.57 10.8499V17.0399H453.48V9.04993Z" fill="#B330C8"/>
<path d="M467.64 17.0402L467.47 15.5802H467.4C466.75 16.4902 465.5 17.3102 463.85 17.3102C461.5 17.3102 460.3 15.6502 460.3 13.9702C460.3 11.1602 462.8 9.63015 467.28 9.65015V9.41016C467.28 8.45016 467.02 6.72015 464.64 6.72015C463.56 6.72015 462.43 7.0602 461.62 7.5802L461.14 6.19019C462.1 5.57019 463.49 5.16016 464.96 5.16016C468.51 5.16016 469.38 7.58016 469.38 9.91016V14.2502C469.38 15.2602 469.43 16.2402 469.57 17.0302H467.65L467.64 17.0402ZM467.33 11.1102C465.03 11.0602 462.41 11.4702 462.41 13.7302C462.41 15.1002 463.32 15.7502 464.4 15.7502C465.91 15.7502 466.87 14.7902 467.21 13.8102C467.28 13.5902 467.33 13.3502 467.33 13.1402V11.1202V11.1102Z" fill="#B330C8"/>
</svg>
